<svg width="0" height="0" class="hidden">
  <symbol xmlns="http://www.w3.org/2000/svg" viewBox="0 0 20 18" id="heart-emplty">
    <path fill-rule="evenodd" clip-rule="evenodd" d="M5.38071 1.33333C3.14541 1.33333 1.33333 3.14541 1.33333 5.38071C1.33333 6.45414 1.75975 7.48361 2.51878 8.24264L10 15.7239L17.4812 8.24264C18.2402 7.48361 18.6667 6.45414 18.6667 5.38071C18.6667 3.14541 16.8546 1.33333 14.6193 1.33333C13.5459 1.33333 12.5164 1.75975 11.7574 2.51878L10.4714 3.80474C10.2111 4.06509 9.78895 4.06509 9.5286 3.80474L8.24264 2.51878C7.48361 1.75975 6.45414 1.33333 5.38071 1.33333ZM0 5.38071C0 2.40903 2.40903 0 5.38071 0C6.80777 0 8.17637 0.566895 9.18545 1.57597L10 2.39052L10.8146 1.57597C11.8236 0.566894 13.1922 0 14.6193 0C17.591 0 20 2.40903 20 5.38071C20 6.80777 19.4331 8.17637 18.424 9.18545L10.4714 17.1381C10.2111 17.3984 9.78895 17.3984 9.5286 17.1381L1.57597 9.18545C0.566893 8.17637 0 6.80777 0 5.38071Z"></path>
  </symbol>
  <symbol xmlns="http://www.w3.org/2000/svg" viewBox="0 0 20 18" id="heart-full">
    <path d="M5.38071 0C2.40903 0 0 2.40903 0 5.38071C0 6.80777 0.566893 8.17637 1.57597 9.18545L9.5286 17.1381C9.78895 17.3984 10.2111 17.3984 10.4714 17.1381L18.424 9.18545C19.4331 8.17637 20 6.80777 20 5.38071C20 2.40903 17.591 0 14.6193 0C13.1922 0 11.8236 0.566894 10.8146 1.57597L10 2.39052L9.18545 1.57597C8.17637 0.566895 6.80777 0 5.38071 0Z"></path>
  </symbol>
  <symbol xmlns="http://www.w3.org/2000/svg" viewBox="0 0 20 20" id="search">
    <g clip-path="url(#clip0_1_1323)">
      <path d="M19.3613 18.2168L14.6012 13.2662C15.8251 11.8113 16.4957 9.98069 16.4957 8.07499C16.4957 3.62251 12.8732 0 8.4207 0C3.96821 0 0.345703 3.62251 0.345703 8.07499C0.345703 12.5275 3.96821 16.15 8.4207 16.15C10.0922 16.15 11.6851 15.6458 13.047 14.6888L17.8432 19.677C18.0436 19.8852 18.3133 20 18.6022 20C18.8757 20 19.1352 19.8957 19.3321 19.7061C19.7506 19.3034 19.764 18.6357 19.3613 18.2168ZM8.4207 2.10652C11.7118 2.10652 14.3892 4.78391 14.3892 8.07499C14.3892 11.3661 11.7118 14.0435 8.4207 14.0435C5.12961 14.0435 2.45222 11.3661 2.45222 8.07499C2.45222 4.78391 5.12961 2.10652 8.4207 2.10652Z"></path>
    </g>
    <defs>
      <clipPath id="clip0_1_1323">
        <rect width="20" height="20" fill="white"></rect>
      </clipPath>
    </defs>
  </symbol>
  <symbol xmlns="http://www.w3.org/2000/svg" viewBox="0 0 30 30" id="smile-happy">
    <path fill-rule="evenodd" clip-rule="evenodd" d="M0 15C0 6.71573 6.71573 0 15 0C23.2843 0 30 6.71573 30 15C30 23.2843 23.2843 30 15 30C6.71573 30 0 23.2843 0 15ZM15 2C7.8203 2 2 7.8203 2 15C2 22.1797 7.8203 28 15 28C22.1797 28 28 22.1797 28 15C28 7.8203 22.1797 2 15 2ZM10 12H8V10H10V12ZM22 12H20V10H22V12ZM9.2 16.6L9.8 17.4C12.4 20.8667 17.6 20.8667 20.2 17.4L20.8 16.6L22.4 17.8L21.8 18.6C18.4 23.1333 11.6 23.1333 8.2 18.6L7.6 17.8L9.2 16.6Z"></path>
  </symbol>
  <symbol xmlns="http://www.w3.org/2000/svg" viewBox="0 0 30 26" id="smile-like">
    <path fill-rule="evenodd" clip-rule="evenodd" d="M8.07107 2C4.71811 2 2 4.71811 2 8.07107C2 9.68122 2.63963 11.2254 3.77817 12.364L15 23.5858L26.2218 12.364C27.3604 11.2254 28 9.68121 28 8.07107C28 4.71811 25.2819 2 21.9289 2C20.3188 2 18.7746 2.63963 17.636 3.77817L15.7071 5.70711C15.3166 6.09763 14.6834 6.09763 14.2929 5.70711L12.364 3.77818C11.2254 2.63963 9.68121 2 8.07107 2ZM0 8.07107C0 3.61354 3.61354 0 8.07107 0C10.2116 0 12.2646 0.850343 13.7782 2.36396L15 3.58579L16.2218 2.36396C17.7354 0.850341 19.7884 0 21.9289 0C26.3865 0 30 3.61354 30 8.07107C30 10.2116 29.1497 12.2646 27.636 13.7782L15.7071 25.7071C15.3166 26.0976 14.6834 26.0976 14.2929 25.7071L2.36396 13.7782C0.850339 12.2646 0 10.2116 0 8.07107Z"></path>
  </symbol>
  <symbol xmlns="http://www.w3.org/2000/svg" viewBox="0 0 30 30" id="smile-sad">
    <path fill-rule="evenodd" clip-rule="evenodd" d="M0 15C0 6.71573 6.71573 0 15 0C23.2843 0 30 6.71573 30 15C30 23.2843 23.2843 30 15 30C6.71573 30 0 23.2843 0 15ZM15 2C7.8203 2 2 7.8203 2 15C2 22.1797 7.8203 28 15 28C22.1797 28 28 22.1797 28 15C28 7.8203 22.1797 2 15 2ZM10 12H8V10H10V12ZM22 12H20V10H22V12ZM7.6 20.2L8.2 19.4C11.6 14.8667 18.4 14.8667 21.8 19.4L22.4 20.2L20.8 21.4L20.2 20.6C17.6 17.1333 12.4 17.1333 9.8 20.6L9.2 21.4L7.6 20.2Z"></path>
  </symbol>
  <symbol xmlns="http://www.w3.org/2000/svg" viewBox="0 0 20 20" id="success">
    <path fill-rule="evenodd" clip-rule="evenodd" d="M0 10C0 4.47715 4.47715 0 10 0C15.5228 0 20 4.47715 20 10C20 15.5228 15.5228 20 10 20C4.47715 20 0 15.5228 0 10ZM10 1.33333C5.21353 1.33333 1.33333 5.21353 1.33333 10C1.33333 14.7865 5.21353 18.6667 10 18.6667C14.7865 18.6667 18.6667 14.7865 18.6667 10C18.6667 5.21353 14.7865 1.33333 10 1.33333ZM15.1872 7.08313L9.42904 14.2809L4.90654 10.5121L5.76012 9.48785L9.23763 12.3858L14.1461 6.2502L15.1872 7.08313Z"></path>
  </symbol>
  <symbol xmlns="http://www.w3.org/2000/svg" viewBox="0 0 18 20" id="update">
    <path fill-rule="evenodd" clip-rule="evenodd" d="M8.48189 2.49989L6.93396 0.953004L7.88633 0L11.0577 3.16928L7.88634 6.33873L6.93395 5.38576L8.47232 3.84832C4.51244 3.99813 1.3473 7.25498 1.3473 11.2478C1.3473 15.3361 4.66547 18.6527 8.75744 18.6527C12.8494 18.6527 16.1676 15.3361 16.1676 11.2478V10.5742H17.5149V11.2478C17.5149 16.081 13.5927 20 8.75744 20C3.92221 20 0 16.081 0 11.2478C0 6.50682 3.77407 2.64542 8.48189 2.49989Z"></path>
  </symbol>
  <symbol xmlns="http://www.w3.org/2000/svg" viewBox="0 0 16 16" id="upload">
    <path fill-rule="evenodd" clip-rule="evenodd" d="M7.86601 0L12.2355 4.03339L11.4129 4.92452L8.48919 2.22567V12.3618H7.27645V2.30464L4.67336 4.90772L3.81583 4.05019L7.86601 0ZM1.21274 14.7873V7.51081H0V16H15.7656V7.51081H14.5529V14.7873H1.21274Z"></path>
  </symbol>
  <symbol xmlns="http://www.w3.org/2000/svg" viewBox="0 0 16 16" id="uploading">
    <circle cx="8" cy="8" r="7" stroke="url(#paint0_angular_1_1198)" stroke-width="2"></circle>
    <defs>
      <radialGradient id="paint0_angular_1_1198" cx="0" cy="0" r="1" gradientUnits="userSpaceOnUse" gradientTransform="translate(8 8) rotate(90) scale(8)">
        <stop stop-color="white"></stop>
        <stop offset="1" stop-color="white" stop-opacity="0"></stop>
      </radialGradient>
    </defs>
  </symbol>
  <symbol xmlns="http://www.w3.org/2000/svg" viewBox="0 0 12 12" id="arrow-down">
    <g clip-path="url(#clip0_1_1254)">
      <path d="M6.59406 9.17417L11.7538 4.01436C12.0821 3.68616 12.0821 3.15395 11.7538 2.82587C11.4256 2.4978 10.8935 2.4978 10.5655 2.82587L5.99993 7.39154L1.43458 2.82606C1.10635 2.49792 0.574264 2.49792 0.24617 2.82606C-0.0820567 3.15414 -0.0820567 3.68628 0.24617 4.01447L5.40591 9.17431C5.57003 9.33836 5.78492 9.42029 5.9999 9.42029C6.21498 9.42029 6.43002 9.3382 6.59406 9.17417Z"></path>
    </g>
    <defs>
      <clipPath id="clip0_1_1254">
        <rect width="12" height="12" fill="white" transform="translate(0 12) rotate(-90)"></rect>
      </clipPath>
    </defs>
  </symbol>
  <symbol xmlns="http://www.w3.org/2000/svg" viewBox="0 0 20 20" id="arrow-left">
    <g clip-path="url(#clip0_1_1332)">
      <path d="M4.70999 10.9901L13.3097 19.5896C13.8567 20.1369 14.7437 20.1369 15.2905 19.5896C15.8373 19.0427 15.8373 18.1558 15.2905 17.6091L7.68104 9.99988L15.2902 2.39096C15.8371 1.84391 15.8371 0.957107 15.2902 0.410284C14.7434 -0.136761 13.8565 -0.136761 13.3095 0.410284L4.70977 9.00985C4.43635 9.28339 4.2998 9.64153 4.2998 9.99983C4.2998 10.3583 4.43662 10.7167 4.70999 10.9901Z"></path>
    </g>
    <defs>
      <clipPath id="clip0_1_1332">
        <rect width="20" height="20" fill="white"></rect>
      </clipPath>
    </defs>
  </symbol>
  <symbol xmlns="http://www.w3.org/2000/svg" viewBox="0 0 18 18" id="close">
    <path fill-rule="evenodd" clip-rule="evenodd" d="M8.05691 8.99997L0.52832 1.47137L1.47113 0.528564L8.99972 8.05716L16.5283 0.528564L17.4711 1.47137L9.94253 8.99997L17.4711 16.5286L16.5283 17.4714L8.99972 9.94278L1.47113 17.4714L0.52832 16.5286L8.05691 8.99997Z"></path>
  </symbol>
  <symbol xmlns="http://www.w3.org/2000/svg" viewBox="0 0 16 9" id="eye-close">
    <path fill-rule="evenodd" clip-rule="evenodd" d="M2.66283 3.11C3.79827 4.3716 5.53146 5.60011 7.99973 5.60011C10.468 5.60011 12.2012 4.3716 13.3367 3.11C13.9047 2.47878 14.3164 1.84576 14.5857 1.37051C14.7201 1.13341 14.8182 0.937055 14.8819 0.801856C14.9138 0.734299 14.937 0.682142 14.9518 0.647952C14.9592 0.630861 14.9645 0.618273 14.9677 0.61051L14.971 0.60253L14.9714 0.601682C14.9713 0.60185 14.9712 0.602038 15.4664 0.800114C15.9616 0.998191 15.9615 0.99842 15.9614 0.998669L15.9612 0.99927L15.9605 1.00084L15.9587 1.00543L15.9525 1.02032C15.9474 1.03274 15.94 1.0501 15.9305 1.07207C15.9115 1.116 15.8836 1.17843 15.8467 1.25671C15.773 1.41317 15.6627 1.63348 15.5138 1.89639C15.2164 2.42114 14.7614 3.12144 14.1295 3.82356C13.9344 4.04031 13.7219 4.25784 13.4913 4.47075L15.3102 6.28966L14.556 7.0439L12.6628 5.15074C11.5878 5.92968 10.2211 6.54206 8.53307 6.64989L8.53308 8.80011L7.46642 8.80012L7.4664 6.64989C5.77837 6.54206 4.4117 5.92969 3.33669 5.15075L1.44354 7.0439L0.689295 6.28966L2.50819 4.47076C2.27763 4.25784 2.06506 4.04031 1.86999 3.82356C1.23808 3.12144 0.783092 2.42113 0.485737 1.89639C0.336759 1.63348 0.226516 1.41317 0.152754 1.2567C0.115852 1.17843 0.0880203 1.116 0.0689819 1.07207C0.059461 1.05009 0.0521336 1.03273 0.0469656 1.02032L0.0408267 1.00543L0.0389625 1.00084L0.0383302 0.999268L0.0380888 0.998666C0.0379889 0.998417 0.0378972 0.998188 0.533085 0.800114C1.02827 0.602041 1.0282 0.601852 1.02813 0.601684L1.02804 0.601448L1.02848 0.602532L1.03177 0.610513C1.035 0.618275 1.0403 0.630863 1.04771 0.647954C1.06252 0.682144 1.08573 0.734301 1.11758 0.801859C1.18132 0.937058 1.27941 1.13341 1.41376 1.37051C1.68307 1.84576 2.09474 2.47878 2.66283 3.11ZM1.02799 0.601335C1.02797 0.601293 1.02799 0.601331 1.02804 0.601448L1.02799 0.601335Z"></path>
  </symbol>
  <symbol xmlns="http://www.w3.org/2000/svg" viewBox="0 0 16 16" id="eye-open">
    <path fill-rule="evenodd" clip-rule="evenodd" d="M1.11701 7.99997C1.11728 8.00055 1.11756 8.00113 1.11783 8.00171C1.18157 8.13691 1.27966 8.33326 1.41401 8.57036C1.68332 9.04561 2.09499 9.67864 2.66308 10.3099C3.79852 11.5715 5.53171 12.8 7.99998 12.8C10.4683 12.8 12.2015 11.5715 13.3369 10.3099C13.905 9.67864 14.3167 9.04561 14.586 8.57036C14.7203 8.33326 14.8184 8.13691 14.8822 8.00171C14.8824 8.00113 14.8827 8.00054 14.883 7.99996C14.8827 7.99939 14.8824 7.99881 14.8822 7.99822C14.8184 7.86303 14.7203 7.66667 14.586 7.42957C14.3167 6.95432 13.905 6.3213 13.3369 5.69008C12.2015 4.42848 10.4683 3.19997 7.99998 3.19997C5.53171 3.19997 3.79852 4.42848 2.66308 5.69008C2.09499 6.3213 1.68332 6.95432 1.41401 7.42957C1.27966 7.66667 1.18157 7.86302 1.11783 7.99822C1.11756 7.9988 1.11728 7.99939 1.11701 7.99997ZM15.4667 7.99997C15.9619 7.80189 15.9618 7.80166 15.9617 7.80141L15.9614 7.80081L15.9608 7.79924L15.9589 7.79465L15.9528 7.77976C15.9476 7.76734 15.9403 7.74998 15.9308 7.72801C15.9117 7.68408 15.8839 7.62165 15.847 7.54338C15.7732 7.38691 15.663 7.1666 15.514 6.90369C15.2167 6.37895 14.7617 5.67864 14.1297 4.97652C12.8652 3.57145 10.865 2.1333 7.99998 2.1333C5.13493 2.1333 3.13479 3.57146 1.87023 4.97652C1.23833 5.67864 0.78334 6.37895 0.485985 6.90369C0.337007 7.1666 0.226765 7.38691 0.153002 7.54338C0.1161 7.62165 0.0882684 7.68408 0.06923 7.72801C0.0597091 7.74999 0.0523817 7.76735 0.0472137 7.77977L0.0410748 7.79465L0.0392106 7.79924L0.0385783 7.80081L0.0383369 7.80141C0.0382369 7.80166 0.0381453 7.80189 0.533333 7.99997L0.0381453 7.80189C-0.0127151 7.92904 -0.0127151 8.07089 0.0381453 8.19804L0.533333 7.99997C0.0381453 8.19804 0.0382369 8.19827 0.0383369 8.19852L0.0385783 8.19912L0.0392106 8.20069L0.0410748 8.20528L0.0472137 8.22017C0.0523817 8.23259 0.0597091 8.24995 0.06923 8.27192C0.0882684 8.31585 0.1161 8.37828 0.153002 8.45656C0.226765 8.61302 0.337007 8.83334 0.485985 9.09624C0.78334 9.62099 1.23833 10.3213 1.87023 11.0234C3.13479 12.4285 5.13493 13.8666 7.99998 13.8666C10.865 13.8666 12.8652 12.4285 14.1297 11.0234C14.7617 10.3213 15.2167 9.62099 15.514 9.09624C15.663 8.83334 15.7732 8.61303 15.847 8.45656C15.8839 8.37828 15.9117 8.31586 15.9308 8.27192C15.9403 8.24995 15.9476 8.23259 15.9528 8.22017L15.9589 8.20528L15.9608 8.20069L15.9614 8.19912L15.9617 8.19852C15.9618 8.19827 15.9619 8.19804 15.4667 7.99997ZM15.4667 7.99997L15.9619 8.19804C16.0127 8.07089 16.0127 7.92904 15.9619 7.80189L15.4667 7.99997ZM5.33333 7.99997C5.33333 6.52721 6.52724 5.3333 8 5.3333C9.47276 5.3333 10.6667 6.52721 10.6667 7.99997C10.6667 9.47273 9.47276 10.6666 8 10.6666C6.52724 10.6666 5.33333 9.47273 5.33333 7.99997ZM8 6.39997C7.11635 6.39997 6.4 7.11631 6.4 7.99997C6.4 8.88362 7.11635 9.59997 8 9.59997C8.88366 9.59997 9.6 8.88362 9.6 7.99997C9.6 7.11631 8.88366 6.39997 8 6.39997Z"></path>
  </symbol>
  <symbol xmlns="http://www.w3.org/2000/svg" viewBox="0 0 19 20" id="filter-down">
    <path fill-rule="evenodd" clip-rule="evenodd" d="M3.80474 17.7239V0H5.13807V17.7239L8 14.8619L8.94281 15.8047L4.94281 19.8047C4.81778 19.9298 4.64822 20 4.4714 20C4.29459 20 4.12502 19.9298 4 19.8047L0 15.8047L0.942809 14.8619L3.80474 17.7239ZM15.1381 1.33333C14.0335 1.33333 13.1381 2.22876 13.1381 3.33333V5.33333H17.1381V3.33333C17.1381 2.22876 16.2426 1.33333 15.1381 1.33333ZM17.1381 6.66667V9.33333H18.4714V3.33333C18.4714 1.49238 16.979 0 15.1381 0C13.2971 0 11.8047 1.49238 11.8047 3.33333V9.33333H13.1381V6.66667H17.1381ZM11.8047 10.6667H15.8047C17.2775 10.6667 18.4714 11.8606 18.4714 13.3333C18.4714 14.1298 18.1222 14.8447 17.5686 15.3333C18.1222 15.822 18.4714 16.5369 18.4714 17.3333C18.4714 18.8061 17.2775 20 15.8047 20H11.8047V10.6667ZM15.8047 14.6667C16.5411 14.6667 17.1381 14.0697 17.1381 13.3333C17.1381 12.597 16.5411 12 15.8047 12H13.1381V14.6667H15.8047ZM13.1381 16H15.8047C16.5411 16 17.1381 16.597 17.1381 17.3333C17.1381 18.0697 16.5411 18.6667 15.8047 18.6667H13.1381V16Z"></path>
  </symbol>
  <symbol xmlns="http://www.w3.org/2000/svg" viewBox="0 0 19 20" id="filter-up">
    <path fill-rule="evenodd" clip-rule="evenodd" d="M4 0.195262C4.26035 -0.0650874 4.68246 -0.0650874 4.94281 0.195262L8.94281 4.19526L8 5.13807L5.13807 2.27614V20H3.80474V2.27614L0.942809 5.13807L0 4.19526L4 0.195262ZM15.1381 1.33333C14.0335 1.33333 13.1381 2.22876 13.1381 3.33333V5.33333H17.1381V3.33333C17.1381 2.22876 16.2426 1.33333 15.1381 1.33333ZM17.1381 6.66667V9.33333H18.4714V3.33333C18.4714 1.49238 16.979 9.93411e-09 15.1381 9.93411e-09C13.2971 9.93411e-09 11.8047 1.49238 11.8047 3.33333V9.33333H13.1381V6.66667H17.1381ZM11.8047 10.6667H15.8047C17.2775 10.6667 18.4714 11.8606 18.4714 13.3333C18.4714 14.1298 18.1222 14.8447 17.5686 15.3333C18.1222 15.822 18.4714 16.5369 18.4714 17.3333C18.4714 18.8061 17.2775 20 15.8047 20H11.8047V10.6667ZM15.8047 14.6667C16.5411 14.6667 17.1381 14.0697 17.1381 13.3333C17.1381 12.597 16.5411 12 15.8047 12H13.1381V14.6667H15.8047ZM13.1381 16H15.8047C16.5411 16 17.1381 16.597 17.1381 17.3333C17.1381 18.0697 16.5411 18.6667 15.8047 18.6667H13.1381V16Z"></path>
  </symbol>
</svg>